<svg width="20" height="25" viewBox="0 0 20 25" fill="none" xmlns="http://www.w3.org/2000/svg">
<path d="M12.8267 10.3963L10.0001 13.3113L7.16008 10.3963L5.28008 12.335L8.12008 15.25L5.29342 18.165L7.17342 20.1038L10.0001 17.1887L12.8267 20.1038L14.7067 18.165L11.8801 15.25L14.7067 12.335L12.8267 10.3963ZM14.6667 1.5L13.3334 0.125H6.66675L5.33341 1.5H0.666748V4.25H19.3334V1.5H14.6667ZM2.00008 22.125C2.00008 23.6375 3.20008 24.875 4.66675 24.875H15.3334C16.8001 24.875 18.0001 23.6375 18.0001 22.125V5.625H2.00008V22.125ZM4.66675 8.375H15.3334V22.125H4.66675V8.375Z" fill="#F8F8F8"/>
</svg>
