<svg data-v-423bf9ae="" xmlns="http://www.w3.org/2000/svg" viewBox="0 0 380.6875499799092 181" class="iconAboveSlogan"><!----><!----><!----><g data-v-423bf9ae="" id="568cf241-da3b-4437-9431-eeb0dc2af89a" fill="white" transform="matrix(6.066733864221661,0,0,6.066733864221661,-8.91809461844585,96.9332666126155)"><path d="M12.95 10.64L10.42 10.64L10.42 5.37L10.42 5.37Q10.42 4.85 10.33 4.42L10.33 4.42L10.33 4.42Q10.24 3.99 10.00 3.69L10.00 3.69L10.00 3.69Q9.75 3.38 9.32 3.22L9.32 3.22L9.32 3.22Q8.89 3.05 8.20 3.05L8.20 3.05L8.20 3.05Q7.68 3.05 7.11 3.19L7.11 3.19L7.11 3.19Q6.54 3.33 5.98 3.56L5.98 3.56L5.98 3.56Q5.42 3.79 4.91 4.10L4.91 4.10L4.91 4.10Q4.40 4.41 4.01 4.74L4.01 4.74L4.01 10.64L1.47 10.64L1.47 1.24L4.01 1.24L4.01 2.53L4.01 2.53Q4.48 2.26 5.02 1.99L5.02 1.99L5.02 1.99Q5.56 1.72 6.17 1.50L6.17 1.50L6.17 1.50Q6.78 1.28 7.46 1.14L7.46 1.14L7.46 1.14Q8.15 1.00 8.91 1.00L8.91 1.00L8.91 1.00Q9.86 1.00 10.61 1.23L10.61 1.23L10.61 1.23Q11.35 1.46 11.87 1.88L11.87 1.88L11.87 1.88Q12.39 2.30 12.67 2.90L12.67 2.90L12.67 2.90Q12.95 3.50 12.95 4.24L12.95 4.24L12.95 10.64ZM28 5.95L28 5.95L28 5.95Q28 7.16 27.56 8.08L27.56 8.08L27.56 8.08Q27.11 9.01 26.28 9.63L26.28 9.63L26.28 9.63Q25.46 10.25 24.28 10.57L24.28 10.57L24.28 10.57Q23.10 10.89 21.63 10.89L21.63 10.89L21.63 10.89Q20.16 10.89 18.97 10.57L18.97 10.57L18.97 10.57Q17.79 10.25 16.95 9.63L16.95 9.63L16.95 9.63Q16.12 9.01 15.67 8.08L15.67 8.08L15.67 8.08Q15.22 7.16 15.22 5.95L15.22 5.95L15.22 5.95Q15.22 4.74 15.67 3.81L15.67 3.81L15.67 3.81Q16.12 2.88 16.95 2.26L16.95 2.26L16.95 2.26Q17.79 1.64 18.97 1.32L18.97 1.32L18.97 1.32Q20.16 1.00 21.63 1.00L21.63 1.00L21.63 1.00Q23.10 1.00 24.28 1.32L24.28 1.32L24.28 1.32Q25.46 1.64 26.28 2.26L26.28 2.26L26.28 2.26Q27.11 2.88 27.56 3.81L27.56 3.81L27.56 3.81Q28 4.74 28 5.95ZM25.44 5.95L25.44 5.95L25.44 5.95Q25.44 5.42 25.27 4.90L25.27 4.90L25.27 4.90Q25.10 4.38 24.67 3.96L24.67 3.96L24.67 3.96Q24.25 3.54 23.51 3.28L23.51 3.28L23.51 3.28Q22.77 3.02 21.63 3.02L21.63 3.02L21.63 3.02Q20.86 3.02 20.28 3.14L20.28 3.14L20.28 3.14Q19.70 3.26 19.28 3.47L19.28 3.47L19.28 3.47Q18.85 3.68 18.57 3.97L18.57 3.97L18.57 3.97Q18.28 4.25 18.11 4.58L18.11 4.58L18.11 4.58Q17.94 4.90 17.87 5.25L17.87 5.25L17.87 5.25Q17.79 5.61 17.79 5.95L17.79 5.95L17.79 5.95Q17.79 6.30 17.87 6.65L17.87 6.65L17.87 6.65Q17.94 7.01 18.11 7.33L18.11 7.33L18.11 7.33Q18.28 7.66 18.57 7.94L18.57 7.94L18.57 7.94Q18.85 8.22 19.28 8.43L19.28 8.43L19.28 8.43Q19.70 8.63 20.28 8.75L20.28 8.75L20.28 8.75Q20.86 8.87 21.63 8.87L21.63 8.87L21.63 8.87Q22.77 8.87 23.51 8.61L23.51 8.61L23.51 8.61Q24.25 8.35 24.67 7.94L24.67 7.94L24.67 7.94Q25.10 7.52 25.27 7.00L25.27 7.00L25.27 7.00Q25.44 6.47 25.44 5.95ZM39.57 3.29L35.57 3.29L35.57 10.64L33.04 10.64L33.04 3.29L29.05 3.29L29.05 1.24L39.57 1.24L39.57 3.29ZM51.71 7.98L51.71 10.17L51.71 10.17Q50.56 10.55 49.41 10.72L49.41 10.72L49.41 10.72Q48.25 10.89 47.05 10.89L47.05 10.89L47.05 10.89Q45.51 10.89 44.31 10.56L44.31 10.56L44.31 10.56Q43.11 10.23 42.29 9.60L42.29 9.60L42.29 9.60Q41.47 8.97 41.04 8.06L41.04 8.06L41.04 8.06Q40.61 7.15 40.61 6.00L40.61 6.00L40.61 6.00Q40.61 4.94 41.05 4.02L41.05 4.02L41.05 4.02Q41.48 3.11 42.28 2.44L42.28 2.44L42.28 2.44Q43.07 1.76 44.20 1.38L44.20 1.38L44.20 1.38Q45.33 1.00 46.72 1.00L46.72 1.00L46.72 1.00Q48.00 1.00 49.06 1.35L49.06 1.35L49.06 1.35Q50.12 1.70 50.88 2.37L50.88 2.37L50.88 2.37Q51.65 3.05 52.07 4.04L52.07 4.04L52.07 4.04Q52.49 5.03 52.49 6.32L52.49 6.32L52.49 6.95L43.23 6.95L43.23 6.95Q43.35 7.40 43.64 7.77L43.64 7.77L43.64 7.77Q43.92 8.13 44.41 8.39L44.41 8.39L44.41 8.39Q44.89 8.65 45.60 8.80L45.60 8.80L45.60 8.80Q46.31 8.94 47.29 8.94L47.29 8.94L47.29 8.94Q47.99 8.94 48.66 8.86L48.66 8.86L48.66 8.86Q49.33 8.77 49.91 8.63L49.91 8.63L49.91 8.63Q50.49 8.49 50.96 8.32L50.96 8.32L50.96 8.32Q51.43 8.15 51.71 7.98L51.71 7.98ZM43.23 5.09L49.96 5.09L49.96 5.09Q49.93 4.74 49.76 4.37L49.76 4.37L49.76 4.37Q49.58 4.00 49.21 3.70L49.21 3.70L49.21 3.70Q48.83 3.40 48.22 3.20L48.22 3.20L48.22 3.20Q47.61 3.01 46.70 3.01L46.70 3.01L46.70 3.01Q45.85 3.01 45.23 3.22L45.23 3.22L45.23 3.22Q44.60 3.43 44.18 3.75L44.18 3.75L44.18 3.75Q43.76 4.06 43.53 4.42L43.53 4.42L43.53 4.42Q43.30 4.79 43.23 5.09L43.23 5.09ZM63.44 1.72L63.44 3.89L63.44 3.89Q63.18 3.76 62.74 3.60L62.74 3.60L62.74 3.60Q62.30 3.43 61.75 3.28L61.75 3.28L61.75 3.28Q61.20 3.14 60.55 3.04L60.55 3.04L60.55 3.04Q59.90 2.94 59.21 2.94L59.21 2.94L59.21 2.94Q58.67 2.94 58.28 2.97L58.28 2.97L58.28 2.97Q57.89 3.01 57.63 3.06L57.63 3.06L57.63 3.06Q57.37 3.12 57.21 3.19L57.21 3.19L57.21 3.19Q57.06 3.26 56.98 3.34L56.98 3.34L56.98 3.34Q56.90 3.41 56.87 3.49L56.87 3.49L56.87 3.49Q56.85 3.56 56.85 3.62L56.85 3.62L56.85 3.62Q56.85 3.83 57.05 3.98L57.05 3.98L57.05 3.98Q57.26 4.14 57.61 4.26L57.61 4.26L57.61 4.26Q57.97 4.38 58.44 4.48L58.44 4.48L58.44 4.48Q58.91 4.59 59.44 4.70L59.44 4.70L59.44 4.70Q59.97 4.81 60.54 4.95L60.54 4.95L60.54 4.95Q61.10 5.08 61.63 5.26L61.63 5.26L61.63 5.26Q62.16 5.43 62.63 5.67L62.63 5.67L62.63 5.67Q63.10 5.91 63.46 6.22L63.46 6.22L63.46 6.22Q63.81 6.54 64.02 6.95L64.02 6.95L64.02 6.95Q64.22 7.36 64.22 7.88L64.22 7.88L64.22 7.88Q64.22 8.56 63.98 9.04L63.98 9.04L63.98 9.04Q63.75 9.53 63.35 9.86L63.35 9.86L63.35 9.86Q62.95 10.20 62.42 10.40L62.42 10.40L62.42 10.40Q61.89 10.60 61.31 10.71L61.31 10.71L61.31 10.71Q60.74 10.82 60.15 10.86L60.15 10.86L60.15 10.86Q59.55 10.89 59.02 10.89L59.02 10.89L59.02 10.89Q57.63 10.89 56.44 10.66L56.44 10.66L56.44 10.66Q55.25 10.43 54.35 10.09L54.35 10.09L54.35 7.85L54.35 7.85Q55.28 8.37 56.48 8.66L56.48 8.66L56.48 8.66Q57.68 8.96 59.05 8.96L59.05 8.96L59.05 8.96Q59.86 8.96 60.36 8.87L60.36 8.87L60.36 8.87Q60.87 8.78 61.16 8.65L61.16 8.65L61.16 8.65Q61.45 8.52 61.55 8.36L61.55 8.36L61.55 8.36Q61.65 8.20 61.65 8.06L61.65 8.06L61.65 8.06Q61.65 7.83 61.45 7.67L61.45 7.67L61.45 7.67Q61.24 7.50 60.89 7.37L60.89 7.37L60.89 7.37Q60.53 7.25 60.06 7.14L60.06 7.14L60.06 7.14Q59.59 7.03 59.06 6.93L59.06 6.93L59.06 6.93Q58.53 6.82 57.97 6.70L57.97 6.70L57.97 6.70Q57.41 6.58 56.88 6.41L56.88 6.41L56.88 6.41Q56.35 6.24 55.88 6.02L55.88 6.02L55.88 6.02Q55.41 5.80 55.05 5.49L55.05 5.49L55.05 5.49Q54.69 5.19 54.49 4.79L54.49 4.79L54.49 4.79Q54.28 4.39 54.28 3.86L54.28 3.86L54.28 3.86Q54.28 3.24 54.50 2.79L54.50 2.79L54.50 2.79Q54.72 2.34 55.09 2.02L55.09 2.02L55.09 2.02Q55.47 1.70 55.96 1.50L55.96 1.50L55.96 1.50Q56.44 1.31 56.98 1.20L56.98 1.20L56.98 1.20Q57.52 1.09 58.08 1.05L58.08 1.05L58.08 1.05Q58.63 1.00 59.13 1.00L59.13 1.00L59.13 1.00Q59.68 1.00 60.26 1.06L60.26 1.06L60.26 1.06Q60.83 1.11 61.39 1.21L61.39 1.21L61.39 1.21Q61.95 1.31 62.48 1.44L62.48 1.44L62.48 1.44Q63 1.57 63.44 1.72L63.44 1.72Z"></path></g><!----><g data-v-423bf9ae="" id="b1192b11-5a15-4235-8c95-87c53434c4d1" transform="matrix(1.0765549453257186,0,0,1.0765549453257186,403.06870776683314,-413.4430171807366)" stroke="none" fill="white"><path d="M-153.5 385.6c-1.2-.6-2.6-1-3.9-1-3.1 0-6 1.7-7.4 4.5l-13.4 25.3c-6.1-6.6-11.9-15.1-15.8-25.6l-51 21.7s7.2 27.5 42.5 57.7l51-34s-6-2.6-13.8-8.3l15.4-29c2.1-4 .5-9.1-3.6-11.3zm-82.9 32.4c-.2 0-.4-.1-.5-.3-.1-.3 0-.6.3-.7l37.7-17.8c.3-.1.6 0 .7.3s0 .6-.3.7l-37.7 17.8h-.2zm3.2 6.4c-.2 0-.4-.1-.5-.3-.1-.3 0-.6.2-.7l36.9-18.9c.3-.1.6 0 .7.2.1.3 0 .6-.2.7l-36.9 18.9c-.1.1-.2.1-.2.1zm3.4 5.8c-.2 0-.4-.1-.5-.3-.1-.3 0-.6.2-.7l28.6-15.2c.3-.1.6 0 .7.2.1.3 0 .6-.2.7l-28.6 15.2c-.1.1-.1.1-.2.1zm6.7 9.7c-.2 0-.4-.1-.5-.3-.1-.3-.1-.6.2-.7l38.7-22.1c.3-.2.6-.1.7.2.1.3.1.6-.2.7l-38.7 22.1c0 .1-.1.1-.2.1zm6.8 7c-.1.1-.2.1-.3.1-.2 0-.4-.1-.5-.3-.2-.3-.1-.6.2-.8l33.3-21.4c-.3.5-.5 1.1-.6 1.7l-32.1 20.7zm4.8 5.7c-.2 0-.3-.1-.4-.2-.2-.2-.1-.6.1-.8l28-20.3c.1.3.3.7.5 1l-27.9 20.1c-.1.2-.2.2-.3.2zm30.2-9.9c0 .2 0 .4-.2.5l-.1.1-.1.3h-.3l-23.3 16c-.1.1-.2.1-.3.1-.2 0-.3-.1-.5-.2-.2-.2-.1-.6.1-.8l21.8-15-2.4.1 2.5-4.7 3.6 1.9-.8 1.7zm1.5-2.7l-3.7-2 1.9-3.6c.5.5 1.1.9 1.7 1.2.6.3 1.3.6 2 .7l-1.9 3.7zm3.8-4.6c-1.2 0-2.3-.3-3.3-.8-1.3-.7-2.3-1.7-3-3-.2-.3-.3-.7-.4-1-.5-1.5-.5-3.1 0-4.7l3.7 2 1.1.6 7.7 4.1c-1.4 1.8-3.5 2.8-5.8 2.8zm25-39l-.3.6-12.7-6.7.3-.6c1.2-2.4 3.7-3.8 6.3-3.8 1.2 0 2.3.3 3.3.8 3.6 1.9 4.9 6.2 3.1 9.7z"></path></g><!----><g data-v-423bf9ae="" id="94dcd12c-cc93-48a8-b3fd-cb849155296a" fill="white" transform="matrix(0.4713346174756583,0,0,0.4713346174756583,48.83956063726569,203.61683324968104)"><path d="M8.82 2.21L7.34 2.21L2.18 7.04L2.18 2.21L1.13 2.21L1.13 11.48L2.18 11.48L2.18 8.44L4.10 6.65L7.73 11.48L9.04 11.48L4.87 5.94ZM23.93 3.22L23.93 2.21L17.11 2.21L17.11 11.48L23.93 11.48L23.93 10.47L18.16 10.47L18.16 7.35L23.31 7.35L23.31 6.33L18.16 6.33L18.16 3.22ZM39.44 3.22L39.44 2.21L32.62 2.21L32.62 11.48L39.44 11.48L39.44 10.47L33.67 10.47L33.67 7.35L38.82 7.35L38.82 6.33L33.67 6.33L33.67 3.22ZM49.18 8.18L52.30 8.18C54.28 8.18 55.50 7.03 55.50 5.19C55.50 3.37 54.28 2.21 52.30 2.21L48.13 2.21L48.13 11.48L49.18 11.48ZM52.23 3.21C53.69 3.21 54.45 3.96 54.45 5.19C54.45 6.44 53.69 7.20 52.23 7.20L49.18 7.20L49.18 3.21ZM78.06 2.21L76.75 2.21L72.81 11.48L73.98 11.48L75.11 8.79L79.70 8.79L80.84 11.48L82.00 11.48ZM75.52 7.83L77.41 3.30L79.30 7.83ZM97.12 2.21L97.12 10.01L91.39 2.21L90.17 2.21L90.17 11.48L91.22 11.48L91.22 3.65L96.95 11.48L98.17 11.48L98.17 2.21ZM111.34 2.21L107.44 2.21L107.44 11.48L111.34 11.48C113.55 11.48 115.60 9.74 115.60 6.85C115.60 3.95 113.55 2.21 111.34 2.21ZM111.30 10.49L108.49 10.49L108.49 3.21L111.30 3.21C113.27 3.21 114.55 4.86 114.55 6.85C114.55 8.83 113.27 10.49 111.30 10.49ZM134.89 4.65C134.89 4.03 135.25 3.08 137.35 3.08C139.05 3.08 139.83 3.82 139.94 4.75L141.02 4.75C140.94 3.36 139.82 2.10 137.35 2.10C135.03 2.10 133.87 3.15 133.87 4.66C133.87 7.84 140.21 6.69 140.21 8.96C140.21 10.05 139.23 10.60 137.66 10.60C136.05 10.60 134.75 10.05 134.68 8.71L133.59 8.71C133.73 10.37 134.85 11.59 137.59 11.59C139.87 11.59 141.26 10.64 141.26 8.92C141.26 5.68 134.89 6.80 134.89 4.65ZM154.04 2.21L152.73 2.21L148.79 11.48L149.95 11.48L151.09 8.79L155.68 8.79L156.81 11.48L157.98 11.48ZM151.49 7.83L153.38 3.30L155.27 7.83ZM172.02 2.21L168.81 10.29L165.61 2.21L164.46 2.21L168.21 11.48L169.41 11.48L173.17 2.21ZM188.16 3.22L188.16 2.21L181.34 2.21L181.34 11.48L188.16 11.48L188.16 10.47L182.39 10.47L182.39 7.35L187.54 7.35L187.54 6.33L182.39 6.33L182.39 3.22ZM210.63 7.81L214.51 2.21L213.23 2.21L210.10 6.72L206.96 2.21L205.69 2.21L209.58 7.81L209.58 11.48L210.63 11.48ZM226.25 2.10C223.44 2.10 221.55 4.21 221.55 6.85C221.55 9.48 223.44 11.59 226.25 11.59C229.07 11.59 230.96 9.48 230.96 6.85C230.96 4.21 229.07 2.10 226.25 2.10ZM226.25 10.57C224.00 10.57 222.60 8.93 222.60 6.85C222.60 4.76 224.00 3.12 226.25 3.12C228.51 3.12 229.91 4.76 229.91 6.85C229.91 8.93 228.51 10.57 226.25 10.57ZM246.36 2.21L246.36 7.52C246.36 9.67 244.93 10.57 243.46 10.57C241.99 10.57 240.58 9.67 240.58 7.52L240.58 2.21L239.53 2.21L239.53 7.49C239.53 9.95 241.15 11.59 243.46 11.59C245.78 11.59 247.41 9.94 247.41 7.49L247.41 2.21ZM257.61 7.92L260.83 7.92L263.07 11.48L264.32 11.48L261.88 7.74C262.92 7.50 264.12 6.90 264.12 5.11C264.12 3.35 262.91 2.21 261.00 2.21L256.56 2.21L256.56 11.48L257.61 11.48ZM257.61 3.21L260.88 3.21C262.19 3.21 263.07 3.93 263.07 5.11C263.07 6.55 261.81 6.93 260.82 6.93L257.61 6.93ZM289.86 2.21L289.86 10.01L284.13 2.21L282.91 2.21L282.91 11.48L283.96 11.48L283.96 3.65L289.69 11.48L290.91 11.48L290.91 2.21ZM304.29 2.10C301.48 2.10 299.59 4.21 299.59 6.85C299.59 9.48 301.48 11.59 304.29 11.59C307.10 11.59 308.99 9.48 308.99 6.85C308.99 4.21 307.10 2.10 304.29 2.10ZM304.29 10.57C302.04 10.57 300.64 8.93 300.64 6.85C300.64 4.76 302.04 3.12 304.29 3.12C306.54 3.12 307.94 4.76 307.94 6.85C307.94 8.93 306.54 10.57 304.29 10.57ZM323.86 2.21L316.34 2.21L316.34 3.22L319.58 3.22L319.58 11.48L320.63 11.48L320.63 3.22L323.86 3.22ZM339.01 3.22L339.01 2.21L332.19 2.21L332.19 11.48L339.01 11.48L339.01 10.47L333.24 10.47L333.24 7.35L338.39 7.35L338.39 6.33L333.24 6.33L333.24 3.22ZM348.21 4.65C348.21 4.03 348.57 3.08 350.67 3.08C352.37 3.08 353.15 3.82 353.26 4.75L354.34 4.75C354.26 3.36 353.14 2.10 350.67 2.10C348.35 2.10 347.19 3.15 347.19 4.66C347.19 7.84 353.53 6.69 353.53 8.96C353.53 10.05 352.55 10.60 350.98 10.60C349.37 10.60 348.07 10.05 348.00 8.71L346.91 8.71C347.05 10.37 348.17 11.59 350.91 11.59C353.19 11.59 354.58 10.64 354.58 8.92C354.58 5.68 348.21 6.80 348.21 4.65ZM379.88 3.22L379.88 2.21L373.18 2.21L373.18 11.48L374.23 11.48L374.23 7.46L379.26 7.46L379.26 6.44L374.23 6.44L374.23 3.22ZM392.46 2.10C389.65 2.10 387.76 4.21 387.76 6.85C387.76 9.48 389.65 11.59 392.46 11.59C395.28 11.59 397.17 9.48 397.17 6.85C397.17 4.21 395.28 2.10 392.46 2.10ZM392.46 10.57C390.21 10.57 388.81 8.93 388.81 6.85C388.81 4.76 390.21 3.12 392.46 3.12C394.72 3.12 396.12 4.76 396.12 6.85C396.12 8.93 394.72 10.57 392.46 10.57ZM406.90 7.92L410.12 7.92L412.36 11.48L413.60 11.48L411.17 7.74C412.20 7.50 413.41 6.90 413.41 5.11C413.41 3.35 412.19 2.21 410.28 2.21L405.85 2.21L405.85 11.48L406.90 11.48ZM406.90 3.21L410.16 3.21C411.47 3.21 412.36 3.93 412.36 5.11C412.36 6.55 411.10 6.93 410.10 6.93L406.90 6.93ZM441.11 12.15C440.62 12.54 440.09 12.78 439.42 12.78C438.13 12.78 437.46 12.03 437.18 11.51C439.47 11.13 441.01 9.20 441.01 6.85C441.01 4.21 439.12 2.10 436.31 2.10C433.50 2.10 431.61 4.21 431.61 6.85C431.61 9.42 433.41 11.48 436.11 11.58C436.72 12.82 438.02 13.68 439.40 13.68C440.30 13.68 441.01 13.43 441.67 12.91ZM436.31 10.57C434.06 10.57 432.66 8.93 432.66 6.85C432.66 4.76 434.06 3.12 436.31 3.12C438.56 3.12 439.96 4.76 439.96 6.85C439.96 8.93 438.56 10.57 436.31 10.57ZM456.41 2.21L456.41 7.52C456.41 9.67 454.99 10.57 453.52 10.57C452.05 10.57 450.63 9.67 450.63 7.52L450.63 2.21L449.58 2.21L449.58 7.49C449.58 9.95 451.21 11.59 453.52 11.59C455.84 11.59 457.46 9.94 457.46 7.49L457.46 2.21ZM467.67 2.21L466.62 2.21L466.62 11.48L467.67 11.48ZM480.91 10.57C478.66 10.57 477.40 8.93 477.40 6.85C477.40 4.76 478.66 3.12 480.91 3.12C482.44 3.12 483.45 3.85 483.92 4.98L485.03 4.98C484.44 3.29 482.93 2.10 480.83 2.10C478.04 2.10 476.35 4.21 476.35 6.85C476.35 9.48 478.04 11.59 480.83 11.59C482.93 11.59 484.44 10.40 485.03 8.71L483.92 8.71C483.45 9.84 482.44 10.57 480.91 10.57ZM501.28 2.21L499.80 2.21L494.65 7.04L494.65 2.21L493.60 2.21L493.60 11.48L494.65 11.48L494.65 8.44L496.57 6.65L500.19 11.48L501.51 11.48L497.34 5.94ZM523.71 2.21L522.40 2.21L518.46 11.48L519.62 11.48L520.76 8.79L525.35 8.79L526.48 11.48L527.65 11.48ZM521.16 7.83L523.05 3.30L524.94 7.83ZM539.62 10.57C537.36 10.57 536.10 8.93 536.10 6.85C536.10 4.76 537.36 3.12 539.62 3.12C541.14 3.12 542.15 3.85 542.63 4.98L543.73 4.98C543.14 3.29 541.63 2.10 539.53 2.10C536.75 2.10 535.05 4.21 535.05 6.85C535.05 9.48 536.75 11.59 539.53 11.59C541.63 11.59 543.14 10.40 543.73 8.71L542.63 8.71C542.15 9.84 541.14 10.57 539.62 10.57ZM556.21 10.57C553.95 10.57 552.69 8.93 552.69 6.85C552.69 4.76 553.95 3.12 556.21 3.12C557.73 3.12 558.74 3.85 559.22 4.98L560.32 4.98C559.73 3.29 558.22 2.10 556.12 2.10C553.34 2.10 551.64 4.21 551.64 6.85C551.64 9.48 553.34 11.59 556.12 11.59C558.22 11.59 559.73 10.40 560.32 8.71L559.22 8.71C558.74 9.84 557.73 10.57 556.21 10.57ZM575.71 3.22L575.71 2.21L568.89 2.21L568.89 11.48L575.71 11.48L575.71 10.47L569.94 10.47L569.94 7.35L575.09 7.35L575.09 6.33L569.94 6.33L569.94 3.22ZM584.91 4.65C584.91 4.03 585.27 3.08 587.37 3.08C589.06 3.08 589.85 3.82 589.96 4.75L591.04 4.75C590.95 3.36 589.83 2.10 587.37 2.10C585.05 2.10 583.88 3.15 583.88 4.66C583.88 7.84 590.23 6.69 590.23 8.96C590.23 10.05 589.25 10.60 587.68 10.60C586.07 10.60 584.77 10.05 584.70 8.71L583.60 8.71C583.74 10.37 584.86 11.59 587.61 11.59C589.89 11.59 591.28 10.64 591.28 8.92C591.28 5.68 584.91 6.80 584.91 4.65ZM600.52 4.65C600.52 4.03 600.88 3.08 602.98 3.08C604.67 3.08 605.46 3.82 605.57 4.75L606.65 4.75C606.56 3.36 605.44 2.10 602.98 2.10C600.66 2.10 599.49 3.15 599.49 4.66C599.49 7.84 605.84 6.69 605.84 8.96C605.84 10.05 604.86 10.60 603.29 10.60C601.68 10.60 600.38 10.05 600.31 8.71L599.21 8.71C599.35 10.37 600.47 11.59 603.22 11.59C605.50 11.59 606.89 10.64 606.89 8.92C606.89 5.68 600.52 6.80 600.52 4.65Z"></path></g></svg>