<svg width="190" height="241" viewBox="0 0 190 241" fill="none" xmlns="http://www.w3.org/2000/svg">
<g clip-path="url(#clip0_110_72)">
<path d="M125.325 63.8499H94.1396C93.4569 63.8525 92.7827 63.6566 92.1683 63.2772C91.554 62.8977 91.0156 62.3446 90.5942 61.6599C90.1651 60.9689 89.8654 60.1621 89.7179 59.3011C89.5704 58.4402 89.579 57.5476 89.743 56.6915C92.6172 41.3477 92.6171 25.357 89.7428 10.0133C89.5789 9.15717 89.5704 8.26471 89.718 7.40379C89.8655 6.54287 90.1651 5.73618 90.5941 5.04509C91.0155 4.36043 91.5539 3.8073 92.1683 3.42781C92.7826 3.04832 93.4569 2.85245 94.1396 2.85513H125.325C126.402 2.85907 127.442 3.35001 128.262 4.2405C129.081 5.13098 129.625 6.3632 129.798 7.71768C131.851 24.7075 131.851 41.9975 129.798 58.9873C129.625 60.3418 129.081 61.574 128.262 62.4645C127.442 63.355 126.402 63.846 125.325 63.8499Z" fill="#E6E6E6"/>
<path d="M94.1397 5.84578C93.8118 5.84438 93.488 5.9383 93.1929 6.12041C92.8978 6.30253 92.6392 6.56802 92.4367 6.89671C92.2282 7.23348 92.0827 7.62641 92.0113 8.04563C91.9399 8.46484 91.9445 8.8993 92.0246 9.31594C94.9848 25.1182 94.9849 41.5867 92.0248 57.389C91.9446 57.8055 91.94 58.2399 92.0113 58.659C92.0827 59.0782 92.2281 59.471 92.4366 59.8077C92.639 60.1365 92.8978 60.4023 93.1929 60.5845C93.488 60.7666 93.8118 60.8606 94.1397 60.8592H125.325C125.842 60.8594 126.342 60.6257 126.737 60.1997C127.131 59.7737 127.395 59.183 127.479 58.5329C129.495 41.8443 129.495 24.8607 127.479 8.17203C127.395 7.52191 127.131 6.93126 126.737 6.50526C126.342 6.07925 125.842 5.84555 125.325 5.84577L94.1397 5.84578Z" fill="white"/>
<path d="M118.52 20.2264H102.155C101.533 20.2256 100.936 19.9102 100.497 19.3496C100.057 18.7889 99.8093 18.0287 99.8086 17.2359V16.0672C99.8093 15.2743 100.057 14.5141 100.497 13.9535C100.936 13.3928 101.533 13.0775 102.155 13.0766H118.52C119.142 13.0775 119.738 13.3928 120.178 13.9535C120.618 14.5141 120.865 15.2743 120.866 16.0672V17.2359C120.865 18.0288 120.618 18.7889 120.178 19.3496C119.738 19.9102 119.142 20.2256 118.52 20.2264Z" fill="#E6E6E6"/>
<path d="M118.52 34.9933H102.155C101.533 34.9925 100.936 34.6771 100.497 34.1164C100.057 33.5558 99.8093 32.7956 99.8086 32.0028V30.8341C99.8093 30.0412 100.057 29.281 100.497 28.7204C100.936 28.1597 101.533 27.8444 102.155 27.8435H118.52C119.142 27.8444 119.738 28.1597 120.178 28.7204C120.618 29.281 120.865 30.0412 120.866 30.8341V32.0028C120.865 32.7956 120.618 33.5558 120.178 34.1164C119.738 34.6771 119.142 34.9925 118.52 34.9933Z" fill="#E6E6E6"/>
<path d="M118.52 49.7603H102.155C101.533 49.7594 100.936 49.4441 100.497 48.8834C100.057 48.3228 99.8093 47.5626 99.8086 46.7697V45.601C99.8093 44.8082 100.057 44.048 100.497 43.4873C100.936 42.9267 101.533 42.6113 102.155 42.6105H118.52C119.142 42.6113 119.738 42.9267 120.178 43.4873C120.618 44.048 120.865 44.8082 120.866 45.601V46.7697C120.865 47.5626 120.618 48.3228 120.178 48.8834C119.738 49.4441 119.142 49.7594 118.52 49.7603Z" fill="#E6E6E6"/>
<path d="M183.987 101.732H152.802C152.119 101.735 151.445 101.539 150.83 101.159C150.216 100.78 149.678 100.227 149.256 99.542C148.827 98.8509 148.528 98.0442 148.38 97.1832C148.233 96.3222 148.241 95.4297 148.405 94.5736C151.279 79.2298 151.279 63.2391 148.405 47.8954C148.241 47.0393 148.233 46.1468 148.38 45.2859C148.528 44.425 148.827 43.6183 149.256 42.9272C149.678 42.2425 150.216 41.6894 150.83 41.3099C151.445 40.9304 152.119 40.7345 152.802 40.7372H183.987C185.064 40.7412 186.104 41.2321 186.924 42.1226C187.743 43.0131 188.288 44.2453 188.461 45.5998C190.513 62.5895 190.513 79.8796 188.461 96.8694C188.288 98.2239 187.743 99.4561 186.924 100.347C186.104 101.237 185.064 101.728 183.987 101.732Z" fill="#E6E6E6"/>
<path d="M152.802 43.7279C152.474 43.7265 152.15 43.8204 151.855 44.0025C151.56 44.1847 151.301 44.4502 151.099 44.7788C150.89 45.1156 150.745 45.5086 150.673 45.9278C150.602 46.347 150.607 46.7814 150.687 47.1981C153.647 63.0003 153.647 79.4688 150.687 95.2711C150.607 95.6877 150.602 96.122 150.673 96.5412C150.745 96.9603 150.89 97.3532 151.099 97.6899C151.301 98.0186 151.56 98.2844 151.855 98.4666C152.15 98.6488 152.474 98.7427 152.802 98.7413H183.987C184.504 98.7415 185.005 98.5078 185.399 98.0818C185.794 97.6558 186.057 97.0652 186.141 96.415C188.157 79.7264 188.157 62.7428 186.141 46.0542C186.057 45.4041 185.794 44.8134 185.399 44.3874C185.005 43.9614 184.504 43.7277 183.987 43.7279L152.802 43.7279Z" fill="white"/>
<path d="M121.805 144.848H90.6199C89.9076 144.851 89.2042 144.646 88.5632 144.25C87.9222 143.854 87.3606 143.277 86.9209 142.563C86.4735 141.842 86.161 141.001 86.0072 140.103C85.8533 139.205 85.8622 138.275 86.0332 137.382C88.9002 122.076 88.9001 106.126 86.033 90.8202C85.8621 89.9274 85.8533 88.9968 86.0071 88.099C86.161 87.2013 86.4735 86.3601 86.9208 85.6395C87.3605 84.9252 87.9222 84.3481 88.5632 83.9522C89.2042 83.5563 89.9076 83.3519 90.6199 83.3546H121.805C122.929 83.3589 124.014 83.8712 124.869 84.8004C125.723 85.7296 126.292 87.0153 126.472 88.4284C128.527 105.443 128.527 122.759 126.472 139.774C126.292 141.187 125.723 142.473 124.869 143.402C124.014 144.331 122.929 144.844 121.805 144.848Z" fill="#F2F2F2"/>
<path d="M177.182 65.5852H160.817C160.195 65.5844 159.599 65.269 159.159 64.7084C158.719 64.1477 158.471 63.3876 158.471 62.5947V61.426C158.471 60.6331 158.719 59.873 159.159 59.3123C159.599 58.7516 160.195 58.4363 160.817 58.4354H177.182C177.804 58.4363 178.4 58.7516 178.84 59.3123C179.28 59.873 179.528 60.6331 179.528 61.426V62.5947C179.528 63.3876 179.28 64.1477 178.84 64.7084C178.4 65.269 177.804 65.5844 177.182 65.5852Z" fill="#E6E6E6"/>
<path d="M177.182 80.3522H160.817C160.195 80.3513 159.599 80.036 159.159 79.4753C158.719 78.9147 158.471 78.1545 158.471 77.3616V76.1929C158.471 75.4 158.719 74.6399 159.159 74.0792C159.599 73.5186 160.195 73.2032 160.817 73.2024H177.182C177.804 73.2032 178.4 73.5186 178.84 74.0792C179.28 74.6399 179.528 75.4 179.528 76.1929V77.3616C179.528 78.1545 179.28 78.9147 178.84 79.4753C178.4 80.036 177.804 80.3513 177.182 80.3522Z" fill="#E6E6E6"/>
<path d="M106.3 125.36C111.268 125.36 115.295 120.227 115.295 113.896C115.295 107.564 111.268 102.431 106.3 102.431C101.332 102.431 97.3052 107.564 97.3052 113.896C97.3052 120.227 101.332 125.36 106.3 125.36Z" fill="white"/>
<path d="M110.602 112.4H107.473V108.413C107.473 108.016 107.349 107.636 107.129 107.355C106.909 107.075 106.611 106.917 106.3 106.917C105.989 106.917 105.69 107.075 105.47 107.355C105.25 107.636 105.127 108.016 105.127 108.413V112.4H101.998C101.687 112.4 101.388 112.558 101.168 112.838C100.948 113.119 100.825 113.499 100.825 113.896C100.825 114.292 100.948 114.672 101.168 114.953C101.388 115.233 101.687 115.391 101.998 115.391H105.127V119.378C105.127 119.775 105.25 120.155 105.47 120.436C105.69 120.716 105.989 120.874 106.3 120.874C106.611 120.874 106.909 120.716 107.129 120.436C107.349 120.155 107.473 119.775 107.473 119.378V115.391H110.602C110.913 115.391 111.211 115.233 111.431 114.953C111.651 114.672 111.775 114.292 111.775 113.896C111.775 113.499 111.651 113.119 111.431 112.838C111.211 112.558 110.913 112.4 110.602 112.4Z" fill="#E6E6E6"/>
<path d="M117.641 8.47363H101.216C100.749 8.47296 100.302 8.23643 99.9721 7.81592C99.6422 7.39542 99.4566 6.82529 99.4561 6.23061V2.24302C99.4566 1.64834 99.6422 1.07821 99.9721 0.657705C100.302 0.237203 100.749 0.000670194 101.216 0H117.641C118.108 0.000670194 118.555 0.237203 118.885 0.657705C119.215 1.07821 119.401 1.64834 119.401 2.24302V6.23061C119.401 6.82529 119.215 7.39542 118.885 7.81592C118.555 8.23643 118.108 8.47296 117.641 8.47363Z" fill="#CCCCCC"/>
<path d="M177.086 46.8542H160.66C160.194 46.8535 159.746 46.617 159.416 46.1965C159.087 45.776 158.901 45.2058 158.9 44.6112V40.6236C158.901 40.0289 159.087 39.4588 159.416 39.0383C159.746 38.6178 160.194 38.3812 160.66 38.3806H177.086C177.552 38.3812 178 38.6178 178.329 39.0383C178.659 39.4588 178.845 40.0289 178.845 40.6236V44.6112C178.845 45.2058 178.659 45.776 178.329 46.1965C178 46.617 177.552 46.8535 177.086 46.8542Z" fill="#CCCCCC"/>
<path d="M34.6482 234.8H39.4429L40.9419 211.229H34.6475L34.6482 234.8Z" fill="#FFB8B8"/>
<path d="M33.4253 232.805L42.8675 232.804H42.8678C43.6581 232.804 44.4405 233.003 45.1706 233.388C45.9007 233.773 46.564 234.338 47.1228 235.05C47.6815 235.763 48.1248 236.608 48.4272 237.539C48.7296 238.469 48.8852 239.466 48.8852 240.473V240.723L33.4256 240.723L33.4253 232.805Z" fill="#2F2E41"/>
<path d="M8.83672 234.8H13.6314L15.9125 211.229H8.83594L8.83672 234.8Z" fill="#FFB8B8"/>
<path d="M7.61426 232.805L17.0564 232.804H17.0568C17.847 232.804 18.6295 233.003 19.3596 233.388C20.0896 233.773 20.753 234.338 21.3117 235.05C21.8705 235.763 22.3137 236.608 22.6161 237.539C22.9185 238.469 23.0742 239.466 23.0742 240.473V240.723L7.61456 240.723L7.61426 232.805Z" fill="#2F2E41"/>
<path d="M9.68757 227.354C9.19848 227.354 8.72732 227.119 8.36767 226.697C8.17462 226.472 8.01913 226.2 7.91055 225.897C7.80196 225.594 7.74253 225.267 7.7358 224.934L5.81299 137.1L33.1148 145.799L41.5385 178.008C42.6247 182.151 43.0949 186.517 42.925 190.88L41.879 222.101C41.8552 222.741 41.6389 223.344 41.2752 223.786C40.9115 224.227 40.4282 224.474 39.9258 224.473H35.3467C34.874 224.471 34.4179 224.251 34.062 223.855C33.7061 223.458 33.4742 222.912 33.4089 222.315L30.136 187.851C29.85 185.163 29.1121 182.585 27.9727 180.293L21.5318 167.295C21.4887 167.208 21.4256 167.141 21.3512 167.101C21.2768 167.062 21.1946 167.053 21.116 167.075C21.0373 167.098 20.966 167.15 20.9118 167.226C20.8576 167.302 20.8231 167.398 20.8131 167.5L15.7586 224.865C15.7043 225.447 15.4907 225.986 15.1554 226.387C14.8201 226.788 14.3846 227.025 13.9256 227.057L9.79889 227.349C9.76176 227.352 9.72471 227.354 9.68757 227.354Z" fill="#2F2E41"/>
<path d="M28.5716 80.2339C33.8765 80.2339 38.177 74.7527 38.177 67.9914C38.177 61.2301 33.8765 55.749 28.5716 55.749C23.2668 55.749 18.9663 61.2301 18.9663 67.9914C18.9663 74.7527 23.2668 80.2339 28.5716 80.2339Z" fill="#FFB8B8"/>
<path d="M32.9841 149.371C32.8188 149.371 32.6542 149.344 32.4941 149.292L5.40592 140.44C4.92162 140.282 4.50324 139.893 4.2368 139.354C3.97036 138.815 3.87611 138.166 3.97345 137.541L10.1944 94.8284C10.582 92.3595 11.4339 90.0473 12.6771 88.0904C13.9202 86.1335 15.5174 84.5904 17.3315 83.5936C19.0992 82.5965 21.0322 82.1693 22.96 82.3497C24.8879 82.5301 26.7512 83.3125 28.3857 84.628C28.7649 84.9296 29.1469 85.2584 29.5208 85.6054C31.026 87.0206 32.2535 88.8611 33.107 90.9824C33.9606 93.1037 34.4169 95.4482 34.4402 97.832L34.9348 146.844C34.9381 147.173 34.8902 147.501 34.7937 147.806C34.6973 148.112 34.5542 148.391 34.3729 148.626C34.1915 148.861 33.9754 149.048 33.737 149.176C33.4986 149.304 33.2428 149.37 32.9841 149.371Z" fill="#FD057F"/>
<path d="M8.19311 149.874C7.86997 149.268 7.65503 148.579 7.56342 147.855C7.47182 147.132 7.50578 146.392 7.6629 145.687C7.82002 144.982 8.09649 144.329 8.47283 143.775C8.84918 143.222 9.31624 142.779 9.84113 142.48L8.63628 124.735L15.0211 129.145L15.1863 145.321C15.522 146.478 15.513 147.752 15.161 148.901C14.8089 150.05 14.1384 150.995 13.2764 151.556C12.4144 152.117 11.4208 152.256 10.4839 151.946C9.54705 151.636 8.73194 150.899 8.19311 149.874Z" fill="#FFB8B8"/>
<path d="M10.4739 140.133C10.2937 140.133 10.1143 140.104 9.9398 140.047C9.56441 139.925 9.22188 139.676 8.94844 139.326C8.67501 138.977 8.48083 138.539 8.38646 138.06L5.24874 122.168C4.1522 116.617 4.67493 110.748 6.71969 105.652L13.2933 89.262C13.7088 87.2996 14.7129 85.6241 16.0889 84.5967C17.4649 83.5692 19.1026 83.2723 20.6488 83.7698C21.4194 84.0178 22.1438 84.4584 22.7799 85.0659C23.416 85.6735 23.9511 86.4359 24.3542 87.3091C24.7656 88.1947 25.0347 89.1758 25.1458 90.1953C25.2568 91.2147 25.2076 92.2521 25.0011 93.2471L15.6435 119.917L15.7546 135.885C15.7575 136.449 15.6246 136.999 15.3739 137.463C15.1232 137.927 14.7668 138.282 14.3528 138.479L11.2213 139.962C10.9822 140.075 10.7291 140.133 10.4739 140.133Z" fill="#FD057F"/>
<path d="M55.2666 143.346C54.6954 143.263 54.1455 143.021 53.6556 142.638C53.1656 142.254 52.7476 141.739 52.4309 141.127C52.1142 140.516 51.9066 139.823 51.8227 139.098C51.7388 138.373 51.7806 137.634 51.9452 136.931L40.6064 126.519L47.3942 123.229L57.1211 133.621C58.0282 134.051 58.7798 134.891 59.2336 135.981C59.6874 137.07 59.8117 138.334 59.5831 139.533C59.3546 140.732 58.7889 141.782 57.9933 142.485C57.1978 143.188 56.2276 143.494 55.2666 143.346Z" fill="#FFB8B8"/>
<path d="M49.3306 135.743C48.9963 135.743 48.6666 135.643 48.3675 135.453L36.8701 128.117C32.8542 125.555 29.705 121.222 28.0079 115.922L22.5495 98.8803C21.6538 97.1986 21.3124 95.1356 21.599 93.1361C21.8856 91.1366 22.7772 89.3608 24.0817 88.1914C24.7334 87.6073 25.4698 87.1944 26.2481 86.9767C27.0263 86.7591 27.8307 86.741 28.6144 86.9236C29.4074 87.1053 30.1641 87.4858 30.8409 88.043C31.5176 88.6002 32.1009 89.323 32.5568 90.1696L42.3123 116.607L51.8804 126.916C52.2174 127.281 52.4583 127.769 52.5707 128.314C52.6831 128.858 52.6615 129.434 52.5088 129.963L51.3474 133.954C51.1957 134.478 50.9218 134.93 50.5625 135.249C50.2013 135.57 49.7713 135.743 49.3306 135.743Z" fill="#FD057F"/>
<path d="M26.5543 80.4213C27.0647 80.7059 28.1098 75.5229 27.6416 74.4862C26.9454 72.9445 26.9866 72.9556 26.5244 71.9356C26.0622 70.9157 25.9588 69.5196 26.5573 68.6221C27.1558 67.7247 28.5409 67.8438 28.814 68.969C28.6383 66.8317 30.2969 65.1137 31.9399 64.6309C33.5829 64.1481 35.3159 64.4479 36.9679 64.0182C38.8851 63.5196 40.8799 61.4713 40.115 58.7842C39.9837 58.3368 39.7872 57.9251 39.5358 57.5709C38.652 56.3044 37.4157 55.7636 36.2069 55.2407C33.6922 54.1528 31.1088 53.0513 28.4549 53.1714C26.2682 53.3171 24.1623 54.2721 22.3948 55.9196C20.6273 57.567 19.275 59.8354 18.5033 62.4472C18.3204 63.1005 18.1787 63.7715 18.0796 64.4536C17.1687 70.6963 20.013 76.854 24.6326 79.2312L26.5543 80.4213Z" fill="#2F2E41"/>
<path opacity="0.2" d="M15.2129 136.247L15.4307 119.834L22.2523 102.353L16.7772 120.297L15.2129 136.247Z" fill="black"/>
<path d="M77.0731 177.439L48.2746 162.189C47.6434 161.857 47.0798 161.347 46.6266 160.696C46.1735 160.045 45.8429 159.271 45.6598 158.433C45.4717 157.585 45.4378 156.693 45.5607 155.826C45.6837 154.959 45.9603 154.139 46.3695 153.428C53.6427 140.664 58.4564 125.897 60.4211 110.322C60.5275 109.452 60.7883 108.623 61.1837 107.9C61.5791 107.178 62.0987 106.579 62.7029 106.151C63.2981 105.725 63.9618 105.477 64.6434 105.427C65.325 105.377 66.0066 105.526 66.6363 105.862L95.4348 121.113C96.4279 121.643 97.2411 122.605 97.7296 123.828C98.2181 125.051 98.3501 126.455 98.1022 127.791C94.883 144.484 89.678 160.451 82.6681 175.136C82.1006 176.302 81.2267 177.174 80.2021 177.596C79.1774 178.017 78.0686 177.962 77.0731 177.439Z" fill="#E6E6E6"/>
<path d="M65.7359 108.624C65.4335 108.462 65.1062 108.391 64.7789 108.415C64.4516 108.439 64.1328 108.557 63.8469 108.762C63.553 108.971 63.3003 109.262 63.1082 109.615C62.916 109.967 62.7895 110.37 62.7381 110.794C60.7146 126.835 55.7571 142.043 48.2665 155.188C48.067 155.534 47.932 155.932 47.8717 156.354C47.8114 156.776 47.8275 157.21 47.9186 157.623C48.0066 158.026 48.1656 158.398 48.3832 158.71C48.6009 159.023 48.8716 159.268 49.1748 159.427L77.9734 174.677C78.4508 174.93 78.9832 174.959 79.4758 174.759C79.9684 174.558 80.3891 174.141 80.6631 173.583C87.5487 159.157 92.6613 143.473 95.8236 127.076C95.941 126.434 95.8759 125.76 95.6398 125.174C95.4037 124.587 95.012 124.127 94.5344 123.874L65.7359 108.624Z" fill="white"/>
<path d="M81.0698 142.572L65.9575 134.569C65.3833 134.264 64.9275 133.681 64.69 132.949C64.4526 132.216 64.4529 131.393 64.691 130.66L65.0428 129.581C65.2821 128.849 65.7394 128.268 66.3144 127.965C66.8894 127.663 67.5352 127.663 68.1099 127.967L83.2222 135.969C83.7964 136.274 84.2522 136.857 84.4897 137.59C84.7271 138.323 84.7268 139.146 84.4887 139.879L84.1369 140.958C83.8976 141.69 83.4402 142.271 82.8653 142.573C82.2903 142.876 81.6446 142.875 81.0698 142.572Z" fill="#FD057F"/>
<path d="M76.6245 156.209L61.5122 148.206C60.938 147.901 60.4822 147.318 60.2447 146.585C60.0073 145.852 60.0076 145.029 60.2457 144.297L60.5975 143.218C60.8368 142.486 61.2941 141.905 61.8691 141.602C62.4441 141.3 63.0898 141.3 63.6646 141.603L78.7769 149.606C79.3511 149.911 79.8069 150.494 80.0444 151.227C80.2818 151.96 80.2815 152.783 80.0434 153.515L79.6916 154.595C79.4523 155.326 78.995 155.907 78.42 156.21C77.845 156.513 77.1993 156.512 76.6245 156.209Z" fill="#FD057F"/>
<path d="M87.1255 123.407C86.8993 123.407 86.6753 123.351 86.4657 123.242L71.2378 115.395C70.8055 115.172 70.4603 114.739 70.2781 114.191C70.0959 113.644 70.0915 113.027 70.2658 112.475L71.4386 108.778C71.6136 108.227 71.9533 107.786 72.383 107.554C72.8126 107.322 73.2971 107.317 73.7298 107.54L88.9577 115.387C89.39 115.61 89.7352 116.043 89.9174 116.59C90.0996 117.138 90.104 117.755 89.9297 118.307L88.7569 122.004C88.6251 122.418 88.3996 122.772 88.109 123.022C87.8185 123.272 87.4761 123.406 87.1255 123.407Z" fill="#CCCCCC"/>
<path d="M55.1423 241H0.39108C0.287359 241 0.187892 240.947 0.11455 240.854C0.0412087 240.761 0 240.634 0 240.502C0 240.369 0.0412087 240.243 0.11455 240.149C0.187892 240.056 0.287359 240.003 0.39108 240.003H55.1423C55.246 240.003 55.3455 240.056 55.4189 240.149C55.4922 240.243 55.5334 240.369 55.5334 240.502C55.5334 240.634 55.4922 240.761 55.4189 240.854C55.3455 240.947 55.246 241 55.1423 241Z" fill="#CCCCCC"/>
</g>
<defs>
<clipPath id="clip0_110_72">
<rect width="190" height="241" fill="white"/>
</clipPath>
</defs>
</svg>
